<?xml version="1.0" encoding="UTF-8"?>
<svg width="130px" height="34px" viewBox="0 0 130 34" version="1.1" xmlns="http://www.w3.org/2000/svg" xmlns:xlink="http://www.w3.org/1999/xlink">
    <!-- Generator: Sketch 48.2 (47327) - http://www.bohemiancoding.com/sketch -->
    <title>Group 44</title>
    <desc>Created with Sketch.</desc>
    <defs>
        <rect id="path-1" x="0" y="0" width="126" height="30" rx="15"></rect>
        <filter x="-2.8%" y="-8.3%" width="105.6%" height="123.3%" filterUnits="objectBoundingBox" id="filter-2">
            <feOffset dx="0" dy="1" in="SourceAlpha" result="shadowOffsetOuter1"></feOffset>
            <feGaussianBlur stdDeviation="1" in="shadowOffsetOuter1" result="shadowBlurOuter1"></feGaussianBlur>
            <feColorMatrix values="0 0 0 0 0   0 0 0 0 0   0 0 0 0 0  0 0 0 0.16 0" type="matrix" in="shadowBlurOuter1"></feColorMatrix>
        </filter>
    </defs>
    <g id="Home-page" stroke="none" stroke-width="1" fill="none" fill-rule="evenodd">
        <g id="Group-44" transform="translate(2.000000, 1.000000)">
            <g id="Base">
                <use fill="black" fill-opacity="1" filter="url(#filter-2)" xlink:href="#path-1"></use>
                <use fill="#50E3C2" fill-rule="evenodd" xlink:href="#path-1"></use>
            </g>
            <text id="ADD-A-STORY" font-family="Roboto-Bold, Roboto" font-size="12" font-weight="bold" fill="#FFFFFF">
                <tspan x="36.821164" y="19">ADD A STORY</tspan>
            </text>
            <g id="Group-6" transform="translate(16.000000, 9.000000)">
                <circle id="Oval" stroke="#FFFFFF" cx="6" cy="6" r="6"></circle>
                <g id="Icons/Plus-Icon" transform="translate(2.000000, 2.000000)" fill="#FFFFFF" fill-rule="nonzero">
                    <path d="M3.5,4.5 L0.5,4.5 C0.223857625,4.5 0,4.27614237 0,4 C0,3.72385763 0.223857625,3.5 0.5,3.5 L3.5,3.5 L3.5,0.5 C3.5,0.223857625 3.72385763,0 4,0 C4.27614237,0 4.5,0.223857625 4.5,0.5 L4.5,3.5 L7.5,3.5 C7.77614237,3.5 8,3.72385763 8,4 C8,4.27614237 7.77614237,4.5 7.5,4.5 L4.5,4.5 L4.5,7.5 C4.5,7.77614237 4.27614237,8 4,8 C3.72385763,8 3.5,7.77614237 3.5,7.5 L3.5,4.5 L3.5,4.5 Z" id="Plus-Icon"></path>
                </g>
            </g>
        </g>
    </g>
</svg>