<?xml version="1.0" encoding="UTF-8"?>
<svg width="50px" height="50px" viewBox="0 0 50 50" version="1.1" xmlns="http://www.w3.org/2000/svg" xmlns:xlink="http://www.w3.org/1999/xlink">
    <!-- Generator: Sketch 48.2 (47327) - http://www.bohemiancoding.com/sketch -->
    <title>Add as favorite button</title>
    <desc>Created with Sketch.</desc>
    <defs></defs>
    <g id="Page-de-profil-Story" stroke="none" stroke-width="1" fill="none" fill-rule="evenodd">
        <g id="Add-as-favorite-button">
            <g id="Group-2">
                <circle id="Oval" fill="#6FB8EF" cx="25" cy="25" r="25"></circle>
                <path d="M32,37.001 C28.134,37.001 25,33.867 25,30.001 C25,26.135 28.134,23 32,23 C35.866,23 39,26.135 39,30.001 C39,33.867 35.866,37.001 32,37.001 L32,37.001 Z M35,29.001 L33,29.001 L33,27.001 C33,26.449 32.553,26.001 32,26.001 C31.448,26.001 31,26.449 31,27.001 L31,29.001 L29,29.001 C28.448,29.001 28,29.449 28,30.001 C28,30.553 28.448,31.001 29,31.001 L31,31.001 L31,33.001 C31,33.553 31.448,34.001 32,34.001 C32.553,34.001 33,33.553 33,33.001 L33,31.001 L35,31.001 C35.552,31.001 36,30.553 36,30.001 C36,29.449 35.552,29.001 35,29.001 L35,29.001 Z M23.06,28.996 C23.04,28.996 23.02,29.001 23,29.001 C19.678,29.001 17,24.591 17,20.059 C17,15.842 19.505,13 23,13 C26.495,13 29,15.842 29,20.059 C29,20.564 28.962,21.066 28.899,21.562 C25.76,22.715 23.442,25.559 23.06,28.996 L23.06,28.996 Z M23,31.001 C23.02,31.001 23.039,30.996 23.058,30.996 C23.323,33.4 24.532,35.518 26.309,36.97 C25.358,36.991 24.284,37.001 23,37.001 C18.951,37.001 16.814,36.919 14.997,36.617 C12.451,36.192 11,35.285 11,33.76 C11,31.746 13.592,28.938 17.196,27.31 C18.652,29.519 20.709,31.001 23,31.001 L23,31.001 Z" id="User-Plus-Icon" fill="#FFFFFF"></path>
            </g>
        </g>
    </g>
</svg>