<?xml version="1.0" encoding="UTF-8"?>
<svg width="71px" height="551px" viewBox="0 0 71 551" version="1.1" xmlns="http://www.w3.org/2000/svg" xmlns:xlink="http://www.w3.org/1999/xlink">
    <!-- Generator: Sketch 48.2 (47327) - http://www.bohemiancoding.com/sketch -->
    <title>Group 9</title>
    <desc>Created with Sketch.</desc>
    <defs>
        <linearGradient x1="50%" y1="0%" x2="50%" y2="100%" id="linearGradient-1">
            <stop stop-color="#F5515F" offset="0%"></stop>
            <stop stop-color="#9F041B" offset="100%"></stop>
        </linearGradient>
    </defs>
    <g id="Create-publication" stroke="none" stroke-width="1" fill="none" fill-rule="evenodd">
        <g id="Group-9">
            <g id="Group-2">
                <g id="Group">
                    <path d="M0,4.99557135 C0,2.23659348 2.23011973,0 5.00613538,0 L70,0 L70,551 L5.00613538,551 C2.24132316,551 0,548.765517 0,546.004429 L0,4.99557135 Z" id="Base" fill="url(#linearGradient-1)"></path>
                    <path d="M0,140 L70,140 L70,141 L0,141 L0,140 Z M0,70 L70,70 L70,71 L0,71 L0,70 Z" id="Lines" fill="#FFFFFF" opacity="0.3"></path>
                    <path d="M45.5,115.001 L24.5,115.001 C23.672,115.001 23,114.328 23,113.5 L23,99.501 C23,98.672 23.672,98 24.5,98 L27.35,98 C27.906,98 28.379,97.725 28.654,97.243 L30.069,94.758 C30.343,94.275 30.817,94 31.372,94 L38.628,94 C39.183,94 39.657,94.275 39.931,94.758 L41.347,97.243 C41.621,97.725 42.094,98 42.65,98 L45.5,98 C46.328,98 47,98.672 47,99.501 L47,113.5 C47,114.328 46.328,115.001 45.5,115.001 L45.5,115.001 Z M35,100.001 C31.686,100.001 29,102.687 29,106 C29,109.314 31.686,112.001 35,112.001 C38.314,112.001 41,109.314 41,106 C41,102.687 38.314,100.001 35,100.001 L35,100.001 Z M35,109 C33.343,109 32,107.658 32,106 C32,104.343 33.343,103.001 35,103.001 C36.657,103.001 38,104.343 38,106 C38,107.658 36.657,109 35,109 L35,109 Z" id="Camera-Icon" fill="#FFFFFF" opacity="0.7"></path>
                    <path d="M45.5,47 L24.5,47 C23.672,47 23,46.3291537 23,45.5003437 L23,24.5051551 C23,23.6773448 23.672,23.0054987 24.5,23.0054987 L40.974,23.0054987 L37.975,26.0048114 L26,26.0048114 L26,44.0006873 L44,44.0006873 L44,32.0244319 L47,29.0241195 L47,45.5003437 C47,46.3291537 46.328,47 45.5,47 L45.5,47 Z M45.797,27.4084897 L42.589,24.2002249 L43.123,23.6643478 C44.009,22.7785507 45.446,22.7785507 46.331,23.6643478 C47.217,24.5511445 47.217,25.9878153 46.331,26.8736123 L45.797,27.4084897 L45.797,27.4084897 Z M30.001,40.000604 L31.07,35.7225844 L31.605,35.187707 L34.813,38.3969715 L34.278,38.931849 L30.001,40.000604 L30.001,40.000604 Z M44.728,28.4782446 L35.882,37.3272167 L32.674,34.1179521 L41.519,25.26898 L44.728,28.4782446 L44.728,28.4782446 Z" id="Post-Icon" fill="#FFFFFF"></path>
                </g>
                <polygon id="Triangle" fill="#FFFFFF" transform="translate(64.500000, 36.000000) rotate(-90.000000) translate(-64.500000, -36.000000) " points="64.5 30 70 42 59 42"></polygon>
            </g>
        </g>
    </g>
</svg>