<?xml version="1.0" encoding="UTF-8"?>
<svg width="25px" height="25px" viewBox="0 0 25 25" version="1.1" xmlns="http://www.w3.org/2000/svg" xmlns:xlink="http://www.w3.org/1999/xlink">
    <!-- Generator: Sketch 48.2 (47327) - http://www.bohemiancoding.com/sketch -->
    <title>Icons/Loupe Icon</title>
    <desc>Created with Sketch.</desc>
    <defs></defs>
    <g id="Home-page" stroke="none" stroke-width="1" fill="none" fill-rule="evenodd">
        <g id="Group-17-Copy-2" transform="translate(-1135.000000, -618.000000)" fill="#5F6EDC" fill-rule="nonzero">
            <g id="Group-16" transform="translate(6.000000, 616.000000)">
                <g id="Icons/Loupe-Icon" transform="translate(1129.000000, 2.000000)">
                    <path d="M22.3359182,24.5366931 C22.9460549,25.1544356 23.9322607,25.1544356 24.5423974,24.5366931 C25.1525342,23.9189506 25.1525342,22.9196153 24.5423974,22.3018728 L19.7276348,17.4898441 C21.0893451,15.6647877 21.8954854,13.4008427 21.8954854,10.9485988 C21.8954854,4.90185463 16.994014,0 10.9477427,0 C4.90147136,0 0,4.90185463 0,10.9485988 C0,16.9953429 4.90147136,21.8971975 10.9477427,21.8971975 C13.4090206,21.8971975 15.6805949,21.0849162 17.5090564,19.7137824 L22.3359182,24.5366931 Z M3.12792648,10.9485988 C3.12792648,6.62949581 6.62897745,3.12817107 10.9477427,3.12817107 C15.2665079,3.12817107 18.7675589,6.62949581 18.7675589,10.9485988 C18.7675589,15.2677017 15.2665079,18.7690264 10.9477427,18.7690264 C6.62897745,18.7690264 3.12792648,15.2677017 3.12792648,10.9485988 Z" id="Loupe-Icon"></path>
                </g>
            </g>
        </g>
    </g>
</svg>