<?xml version="1.0" encoding="UTF-8"?>
<svg width="52px" height="52px" viewBox="0 0 52 52" version="1.1" xmlns="http://www.w3.org/2000/svg" xmlns:xlink="http://www.w3.org/1999/xlink">
    <!-- Generator: Sketch 48.2 (47327) - http://www.bohemiancoding.com/sketch -->
    <title>Group 2</title>
    <desc>Created with Sketch.</desc>
    <defs>
        <filter x="-0.3%" y="-0.5%" width="100.5%" height="101.4%" filterUnits="objectBoundingBox" id="filter-1">
            <feOffset dx="0" dy="1" in="SourceAlpha" result="shadowOffsetOuter1"></feOffset>
            <feGaussianBlur stdDeviation="1" in="shadowOffsetOuter1" result="shadowBlurOuter1"></feGaussianBlur>
            <feColorMatrix values="0 0 0 0 0   0 0 0 0 0   0 0 0 0 0  0 0 0 0.16 0" type="matrix" in="shadowBlurOuter1" result="shadowMatrixOuter1"></feColorMatrix>
            <feMerge>
                <feMergeNode in="shadowMatrixOuter1"></feMergeNode>
                <feMergeNode in="SourceGraphic"></feMergeNode>
            </feMerge>
        </filter>
        <circle id="path-2" cx="23" cy="23" r="23"></circle>
        <filter x="-7.6%" y="-5.4%" width="115.2%" height="115.2%" filterUnits="objectBoundingBox" id="filter-3">
            <feOffset dx="0" dy="1" in="SourceAlpha" result="shadowOffsetOuter1"></feOffset>
            <feGaussianBlur stdDeviation="1" in="shadowOffsetOuter1" result="shadowBlurOuter1"></feGaussianBlur>
            <feColorMatrix values="0 0 0 0 0   0 0 0 0 0   0 0 0 0 0  0 0 0 0.16 0" type="matrix" in="shadowBlurOuter1"></feColorMatrix>
        </filter>
    </defs>
    <g id="Page-de-profil-User" stroke="none" stroke-width="1" fill="none" fill-rule="evenodd">
        <g id="Profile-#2" filter="url(#filter-1)" transform="translate(-1280.000000, -28.000000)">
            <g id="Group-2" transform="translate(1284.000000, 30.000000)">
                <g id="Base" transform="translate(23.000000, 23.000000) rotate(90.000000) translate(-23.000000, -23.000000) ">
                    <use fill="black" fill-opacity="1" filter="url(#filter-3)" xlink:href="#path-2"></use>
                    <use fill="#FFFFFF" fill-rule="evenodd" xlink:href="#path-2"></use>
                </g>
                <path d="M23,31 C24.1045695,31 25,30.1045695 25,29 C25,27.8954305 24.1045695,27 23,27 C21.8954305,27 21,27.8954305 21,29 C21,30.1045695 21.8954305,31 23,31 L23,31 L23,31 L23,31 Z M23,25 C24.1045695,25 25,24.1045695 25,23 C25,21.8954305 24.1045695,21 23,21 C21.8954305,21 21,21.8954305 21,23 C21,24.1045695 21.8954305,25 23,25 L23,25 L23,25 L23,25 Z M23,19 C24.1045695,19 25,18.1045695 25,17 C25,15.8954305 24.1045695,15 23,15 C21.8954305,15 21,15.8954305 21,17 C21,18.1045695 21.8954305,19 23,19 L23,19 L23,19 L23,19 Z" id="Dots-VR-Icon" fill="#888888" transform="translate(23.000000, 23.000000) rotate(90.000000) translate(-23.000000, -23.000000) "></path>
            </g>
        </g>
    </g>
</svg>