<?xml version="1.0" encoding="UTF-8"?>
<svg width="18px" height="18px" viewBox="0 0 18 18" version="1.1" xmlns="http://www.w3.org/2000/svg" xmlns:xlink="http://www.w3.org/1999/xlink">
    <!-- Generator: Sketch 48.2 (47327) - http://www.bohemiancoding.com/sketch -->
    <title>Post Icon</title>
    <desc>Created with Sketch.</desc>
    <defs></defs>
    <g id="Page-de-profil-User" stroke="none" stroke-width="1" fill="none" fill-rule="evenodd">
        <path d="M16,17 L2,17 C1.448,17 1,16.5527692 1,16.0002291 L1,2.00343671 C1,1.45156318 1.448,1.00366583 2,1.00366583 L12.9826667,1.00366583 L10.9833333,3.0032076 L3,3.0032076 L3,15.0004582 L15,15.0004582 L15,7.01628793 L17,5.01607965 L17,16.0002291 C17,16.5527692 16.552,17 16,17 L16,17 Z M16.198,3.93899315 L14.0593333,1.80014997 L14.4153333,1.4428985 C15.006,0.852367166 15.964,0.852367166 16.554,1.4428985 C17.1446667,2.03409635 17.1446667,2.99187686 16.554,3.5824082 L16.198,3.93899315 L16.198,3.93899315 Z M5.66733333,12.333736 L6.38,9.48172294 L6.73666667,9.12513799 L8.87533333,11.2646477 L8.51866667,11.6212326 L5.66733333,12.333736 L5.66733333,12.333736 Z M15.4853333,4.65216305 L9.588,10.5514778 L7.44933333,8.41196809 L13.346,2.51265335 L15.4853333,4.65216305 L15.4853333,4.65216305 Z" id="Post-Icon" stroke="#000000" stroke-width="0.5" fill="#FFFFFF"></path>
    </g>
</svg>