<?xml version="1.0" encoding="UTF-8"?>
<svg width="54px" height="54px" viewBox="0 0 54 54" version="1.1" xmlns="http://www.w3.org/2000/svg" xmlns:xlink="http://www.w3.org/1999/xlink">
    <!-- Generator: Sketch 48.2 (47327) - http://www.bohemiancoding.com/sketch -->
    <title>Copy Link</title>
    <desc>Created with Sketch.</desc>
    <defs>
        <circle id="path-1" cx="25" cy="25" r="25"></circle>
        <filter x="-7.0%" y="-5.0%" width="114.0%" height="114.0%" filterUnits="objectBoundingBox" id="filter-2">
            <feOffset dx="0" dy="1" in="SourceAlpha" result="shadowOffsetOuter1"></feOffset>
            <feGaussianBlur stdDeviation="1" in="shadowOffsetOuter1" result="shadowBlurOuter1"></feGaussianBlur>
            <feColorMatrix values="0 0 0 0 0   0 0 0 0 0   0 0 0 0 0  0 0 0 0.16 0" type="matrix" in="shadowBlurOuter1"></feColorMatrix>
        </filter>
    </defs>
    <g id="Page-de-profil-Story" stroke="none" stroke-width="1" fill="none" fill-rule="evenodd">
        <g id="Copy-Link" transform="translate(2.000000, 1.000000)">
            <g>
                <g id="Base">
                    <use fill="black" fill-opacity="1" filter="url(#filter-2)" xlink:href="#path-1"></use>
                    <use fill="#363A5B" fill-rule="evenodd" xlink:href="#path-1"></use>
                </g>
                <path d="M29.2889531,26.8006779 L32.4042471,23.7288607 C34.1260585,22.0310787 34.1257497,19.2750234 32.4055453,17.578826 C30.6823687,15.8796979 27.8937312,15.8789189 26.1684664,17.5801061 L23.0531724,20.6519232 C22.6226816,21.0764062 22.6226816,21.764629 23.0531724,22.1891119 C23.4836632,22.6135948 24.1816267,22.6135948 24.6121176,22.1891119 L27.7274116,19.1172947 C28.5914969,18.2652685 29.9842075,18.2656575 30.8466001,19.1160147 C31.7059,19.9633222 31.7060546,21.342932 30.8453019,22.191672 L27.7300079,25.2634892 C27.2995171,25.6879721 27.2995171,26.3761949 27.7300079,26.8006779 C28.1604988,27.2251608 28.8584623,27.2251608 29.2889531,26.8006779 L29.2889531,26.8006779 L29.2889531,26.8006779 L29.2889531,26.8006779 Z M23.832645,27.5692722 L27.7300079,23.7263005 C28.1604988,23.3018176 28.1604988,22.6135948 27.7300079,22.1891119 C27.2995171,21.764629 26.6015536,21.764629 26.1710628,22.1891119 L22.2736998,26.0320835 C21.843209,26.4565665 21.843209,27.1447893 22.2736998,27.5692722 C22.7041906,27.9937551 23.4021542,27.9937551 23.832645,27.5692722 L23.832645,27.5692722 L23.832645,27.5692722 L23.832645,27.5692722 Z M25.390292,27.5705523 L22.274998,30.6423694 C21.4142453,31.4911095 20.0151094,31.4909571 19.1558094,30.6436495 C18.2934168,29.7932924 18.2930223,28.4200184 19.1571076,27.5679921 L22.2724016,24.4961749 C22.7028924,24.071692 22.7028924,23.3834692 22.2724016,22.9589863 C21.8419108,22.5345034 21.1439473,22.5345034 20.7134564,22.9589863 L17.5981625,26.0308035 C15.8728976,27.7319906 15.8736877,30.4817101 17.5968643,32.1808381 C19.3170687,33.8770356 22.1121317,33.87734 23.8339432,32.1795581 L26.9492372,29.1077409 C27.379728,28.683258 27.379728,27.9950352 26.9492372,27.5705523 C26.5187463,27.1460693 25.8207828,27.1460693 25.390292,27.5705523 L25.390292,27.5705523 L25.390292,27.5705523 L25.390292,27.5705523 Z" id="Link-Icon" fill="#FFFFFF" fill-rule="nonzero"></path>
            </g>
        </g>
    </g>
</svg>